<?xml version="1.0" encoding="utf-8"?>
<svg xmlns="http://www.w3.org/2000/svg" xmlns:xlink="http://www.w3.org/1999/xlink" style="margin: auto; background-color: rgb(255, 255, 255); display: block; z-index: 1; position: relative; shape-rendering: auto; background-position: initial initial; background-repeat: initial initial;" width="150" height="150" preserveAspectRatio="xMidYMid" viewBox="0 0 150 150">
<g transform=""><g transform="translate(169.9868916189767,14.719485564862872) scale(100)" opacity="0.4">
  <path d="M0.9787500000000002 0 C0.9787500000000002 0.25875000000000004 1.1805522881298296 0.5378888546822889 1.028462854099152 0.7472220019768065 S0.5485362568358509 0.8508884180293641 0.30245038324447987 0.9308465653238818 S-0.14675198050778085 1.288988743634732 -0.3928378540991519 1.2090305963402144 S-0.6397359492138024 0.784627962975776 -0.7918253832444799 0.5752948156812583 S-1.2712500000000002 0.2587500000000002 -1.2712500000000002 1.556832243416073e-16 S-0.9439148172751575 -0.3659616683867404 -0.79182538324448 -0.5752948156812581 S-0.6389237276905232 -1.1290724490456965 -0.3928378540991522 -1.2090305963402141 S0.0563645096531086 -1.0108047126183994 0.30245038324447965 -0.9308465653238819 S0.8763734200684745 -0.9565551492713245 1.028462854099152 -0.7472220019768068 S0.9787500000000001 -0.25875000000000026 0.9787500000000002 -2.3972461093309444e-16" fill="#ff00ff" stroke-width="0">
    <animateTransform attributeName="transform" type="rotate" dur="20s" repeatCount="indefinite" values="0;72"></animateTransform>
  </path>
</g><g transform="translate(188.98426994277202,2.6633826778354575) scale(100)" opacity="0.4">
  <path d="M1.1745 0 C1.1745 0.3105 1.416662745755795 0.6454666256187465 1.2341554249189821 0.8966664023721677 S0.6582435082030209 1.0210661016352367 0.3629404598933758 1.117015878388658 S-0.17610237660933692 1.5467864923616779 -0.47140542491898213 1.4508367156082567 S-0.7676831390565627 0.9415535555709311 -0.9501904598933757 0.6903537788175099 S-1.5254999999999999 0.31050000000000016 -1.5254999999999999 1.868198692099287e-16 S-1.1326977807301888 -0.4391540020640884 -0.9501904598933759 -0.6903537788175096 S-0.7667084732286276 -1.3548869388548355 -0.47140542491898246 -1.4508367156082567 S0.06763741158373032 -1.2129656551420793 0.36294045989337553 -1.1170158783886581 S1.0516481040821692 -1.147866179125589 1.2341554249189821 -0.8966664023721679 S1.1745 -0.3105000000000003 1.1745 -2.876695331197133e-16" fill="#009aff" stroke-width="0">
    <animateTransform attributeName="transform" type="rotate" dur="10s" repeatCount="indefinite" values="0;72"></animateTransform>
  </path>
</g><g transform="translate(234.57797791988085,-26.271264251030374) scale(100)" opacity="0.4">
  <path d="M1.6442999999999999 0 C1.6442999999999999 0.4346999999999999 1.9833278440581128 0.903653275866245 1.7278175948865748 1.2553329633210346 S0.9215409114842292 1.4294925422893312 0.5081166438507261 1.5638222297441209 S-0.24654332725307165 2.165501089306349 -0.6599675948865749 2.031171401851559 S-1.0747563946791878 1.3181749777993033 -1.3302666438507258 0.9664952903445136 S-2.1356999999999995 0.4347000000000002 -2.1356999999999995 2.6154781689390015e-16 S-1.585776893022264 -0.6148156028897237 -1.330266643850726 -0.9664952903445133 S-1.0733918625200785 -1.896841714396769 -0.6599675948865753 -2.0311714018515588 S0.09469237621722243 -1.6981519171989106 0.5081166438507256 -1.563822229744121 S1.4723073457150364 -1.6070126507758244 1.7278175948865746 -1.2553329633210348 S1.6442999999999999 -0.4347000000000003 1.6442999999999999 -4.0273734636759855e-16" fill="#00c1ff" stroke-width="0">
    <animateTransform attributeName="transform" type="rotate" dur="6.666666666666666s" repeatCount="indefinite" values="0;72"></animateTransform>
  </path>
</g><g transform="translate(330.32476467180936,-87.0340228016486) scale(100)" opacity="0.4">
  <path d="M2.6308800000000003 0 C2.6308800000000003 0.69552 3.1733245504929815 1.4458452413859926 2.7645081518185206 2.008532741313656 S1.4744654583747672 2.2871880676629304 0.8129866301611619 2.502115567590594 S-0.3944693236049148 3.464801742890159 -1.05594815181852 3.2498742429624956 S-1.7196102314867006 2.1090799644788856 -2.1284266301611616 1.5463924645512221 S-3.41712 0.6955200000000005 -3.41712 4.1847650703024037e-16 S-2.537243028835623 -0.9837049646235583 -2.128426630161162 -1.5463924645512217 S-1.717426980032126 -3.0349467430348316 -1.0559481518185208 -3.249874242962495 S0.15150780194755598 -2.717043067518257 0.8129866301611612 -2.502115567590594 S2.3556917531440593 -2.5712202412413196 2.76450815181852 -2.0085327413136564 S2.6308800000000003 -0.6955200000000007 2.6308800000000003 -6.443797541881578e-16" fill="#00cebb" stroke-width="0">
    <animateTransform attributeName="transform" type="rotate" dur="5s" repeatCount="indefinite" values="0;72"></animateTransform>
  </path>
</g><g transform="translate(534.5845764092569,-216.6612410429675) scale(100)" opacity="0.4">
  <path d="M4.735584000000001 0 C4.735584000000001 1.2519360000000002 5.711984190887367 2.6025214344947862 4.9761146732733375 3.615358934364581 S2.654037825074581 4.1169385217932755 1.4633759342900916 4.50380802166307 S-0.7100447824888467 6.236643137202287 -1.9007066732733364 5.8497736373324924 S-3.0952984166760618 3.7963439360619944 -3.8311679342900917 2.7835064361922 S-6.150816000000001 1.2519360000000008 -6.150816000000001 7.532577126544327e-16 S-4.567037451904122 -1.7706689363224049 -3.831167934290092 -2.7835064361921993 S-3.0913685640578272 -5.462904137462697 -1.9007066732733378 -5.849773637332492 S0.2727140435056008 -4.890677521532864 1.4633759342900905 -4.50380802166307 S4.240245155659307 -4.6281964342343755 4.976114673273337 -3.6153589343645818 S4.735584000000001 -1.2519360000000013 4.735584000000001 -1.1598835575386841e-15" fill="#8fce89" stroke-width="0">
    <animateTransform attributeName="transform" type="rotate" dur="4s" repeatCount="indefinite" values="0;72"></animateTransform>
  </path>
</g></g>
</svg>