<?xml version="1.0" encoding="utf-8"?>
<svg xmlns="http://www.w3.org/2000/svg" xmlns:xlink="http://www.w3.org/1999/xlink" style="margin: auto; background-color: rgb(255, 255, 255); display: block; z-index: 1; position: relative; shape-rendering: auto; background-position: initial initial; background-repeat: initial initial;" width="101" height="84" preserveAspectRatio="xMidYMid" viewBox="0 0 101 84">
<g transform=""><g transform="translate(78.43197968748065,20.333735653367288) scale(100)" opacity="0.30000000000000004">
  <path d="M0.3428949999999999 0 C0.3428949999999999 0.08130499999999997 0.36332418705656333 0.08472596502659231 0.3280472696476103 0.15797923883139847 S0.2773583442904135 0.21739326784075064 0.2137915356083504 0.268086106180875 S0.160287498558107 0.3368840629296447 0.08102098465816386 0.3549761274649628 S0.0029651982509927566 0.3523899709829044 -0.07630131564895039 0.3342979064475863 S-0.16344894562371093 0.3353615902641463 -0.2270157543057741 0.284668751924022 S-0.27366080255044684 0.22202983852952124 -0.3089377199593999 0.1487765647247151 S-0.36410499999999996 0.08130500000000002 -0.36410499999999996 4.45900022803547e-17 S-0.34421463736835295 -0.07552329091990885 -0.3089377199593999 -0.148776564724715 S-0.29058256298783736 -0.23397591358389758 -0.2270157543057742 -0.2846687519240219 S-0.1555678295488936 -0.31620584191226814 -0.07630131564895047 -0.3342979064475863 S0.0017544707582206331 -0.37306819200028096 0.08102098465816378 -0.3549761274649628 S0.15022472692628716 -0.3187789445209993 0.21379153560835032 -0.26808610618087503 S0.29277035223865716 -0.2312325126362047 0.3280472696476102 -0.15797923883139853 S0.3428949999999999 -0.08130500000000006 0.3428949999999999 -8.398505283872631e-17" fill="#ff00ff" stroke-width="0">
    <animateTransform attributeName="transform" type="rotate" dur="11.11111111111111s" repeatCount="indefinite" values="0;51.42857142857143"></animateTransform>
  </path>
</g><g transform="translate(84.01837562497678,16.000482784040745) scale(100)" opacity="0.30000000000000004">
  <path d="M0.41147399999999995 0 C0.41147399999999995 0.09756599999999999 0.4359890244678761 0.10167115803191078 0.3936567235771324 0.1895750865976782 S0.3328300131484963 0.2608719214089008 0.2565498427300205 0.32170332741705 S0.19234499826972842 0.4042608755155737 0.09722518158979664 0.42597135295795546 S0.003558237901191308 0.4228679651794854 -0.09156157877874048 0.40115748773710364 S-0.19613873474845311 0.4024339083169756 -0.2724189051669289 0.34160250230882644 S-0.3283929630605362 0.2664358062354255 -0.3707252639512799 0.17853187766965814 S-0.436926 0.09756600000000004 -0.436926 5.350800273642564e-17 S-0.4130575648420236 -0.09062794910389065 -0.37072526395127997 -0.17853187766965806 S-0.34869907558540486 -0.28077109630067715 -0.27241890516692907 -0.34160250230882633 S-0.18668139545867235 -0.3794470102947218 -0.09156157877874058 -0.4011574877371036 S0.0021053649098647514 -0.4476818304003372 0.09722518158979654 -0.42597135295795546 S0.18026967231154462 -0.3825347334251993 0.2565498427300204 -0.3217033274170501 S0.35132442268638864 -0.27747901516344564 0.39365672357713233 -0.18957508659767827 S0.41147399999999995 -0.09756600000000008 0.41147399999999995 -1.0078206340647159e-16" fill="#9890ff" stroke-width="0">
    <animateTransform attributeName="transform" type="rotate" dur="5.555555555555555s" repeatCount="indefinite" values="0;51.42857142857143"></animateTransform>
  </path>
</g><g transform="translate(97.4257258749675,5.600675897657048) scale(100)" opacity="0.30000000000000004">
  <path d="M0.5760635999999999 0 C0.5760635999999999 0.13659239999999997 0.6103846342550265 0.14233962124467509 0.5511194130079854 0.2654051212367495 S0.46596201840789475 0.3652206899724611 0.3591697798220287 0.45038465838387 S0.2692829975776198 0.5659652257218032 0.1361152542257153 0.5963598941411377 S0.004981533061667848 0.5920151512512796 -0.12818621029023666 0.5616204828319451 S-0.2745942286478344 0.5634074716437658 -0.3813864672337005 0.47824350323235704 S-0.4597501482847507 0.3730101287295957 -0.5190153695317918 0.24994462873752138 S-0.6116964 0.13659240000000006 -0.6116964 7.491120383099591e-17 S-0.5782805907788331 -0.12687912874544688 -0.519015369531792 -0.24994462873752124 S-0.4881787058195668 -0.39307953482094804 -0.38138646723370073 -0.4782435032323569 S-0.2613539536421413 -0.5312258144126105 -0.1281862102902368 -0.561620482831945 S0.0029475108738106492 -0.6267545625604721 0.13611525422571516 -0.5963598941411377 S0.25237754123616246 -0.5355486267952789 0.3591697798220286 -0.4503846583838701 S0.49185419176094414 -0.3884706212288239 0.5511194130079853 -0.2654051212367496 S0.5760635999999999 -0.1365924000000001 0.5760635999999999 -1.410948887690602e-16" fill="#00c6ff" stroke-width="0">
    <animateTransform attributeName="transform" type="rotate" dur="3.7037037037037033s" repeatCount="indefinite" values="0;51.42857142857143"></animateTransform>
  </path>
</g><g transform="translate(125.581161399948,-16.238918563748733) scale(100)" opacity="0.30000000000000004">
  <path d="M0.9217017599999999 0 C0.9217017599999999 0.21854783999999997 0.9766154148080423 0.22774339399148016 0.8817910608127765 0.42464819397879916 S0.7455392294526316 0.5843531039559379 0.5746716477152459 0.7206154534141921 S0.4308527961241917 0.905544361154885 0.21778440676114447 0.9541758306258202 S0.007970452898668517 0.9472242420020474 -0.20509793646437868 0.8985927725311122 S-0.439350765836535 0.9014519546300253 -0.6102183475739208 0.7651896051717711 S-0.7356002372556012 0.5968162059673532 -0.8304245912508671 0.3999114059800342 S-0.97871424 0.21854784000000008 -0.97871424 1.1985792612959344e-16 S-0.925248945246133 -0.20300660599271506 -0.8304245912508672 -0.39991140598003405 S-0.7810859293113068 -0.6289272557135167 -0.6102183475739211 -0.7651896051717709 S-0.4181663258274261 -0.8499613030601769 -0.2050979364643789 -0.8985927725311121 S0.004716017398097044 -1.0028073000967554 0.21778440676114424 -0.9541758306258202 S0.40380406597786 -0.8568778028724464 0.5746716477152458 -0.7206154534141923 S0.7869667068175105 -0.6215529939661183 0.8817910608127764 -0.4246481939787993 S0.9217017599999999 -0.2185478400000002 0.9217017599999999 -2.2575182203049635e-16" fill="#00e8ff" stroke-width="0">
    <animateTransform attributeName="transform" type="rotate" dur="2.7777777777777777s" repeatCount="indefinite" values="0;51.42857142857143"></animateTransform>
  </path>
</g><g transform="translate(185.6460905199064,-62.830053414747724) scale(100)" opacity="0.30000000000000004">
  <path d="M1.659063168 0 C1.659063168 0.393386112 1.7579077466544764 0.4099381091846643 1.5872239094629979 0.7643667491618386 S1.3419706130147373 1.0518355871206881 1.034408965887443 1.2971078161455458 S0.7755350330235451 1.6299798500787932 0.3920119321700601 1.7175164951264765 S0.014346815217603393 1.7050036356036855 -0.3691762856358817 1.6174669905560022 S-0.790831378505763 1.6226135183340458 -1.0983930256330574 1.3773412893091883 S-1.3240804270600823 1.074269170741236 -1.4947642642515608 0.7198405307640617 S-1.761685632 0.39338611200000023 -1.761685632 2.157442670332682e-16 S-1.6654481014430396 -0.36541189078688713 -1.494764264251561 -0.7198405307640614 S-1.4059546727603525 -1.1320690602843302 -1.098393025633058 -1.3773412893091879 S-0.7526993864893671 -1.5299303455083186 -0.36917628563588206 -1.617466990556002 S0.008488831316574574 -1.8050531401741599 0.39201193217005964 -1.7175164951264765 S0.7268473187601481 -1.5423800451704037 1.0344089658874425 -1.2971078161455463 S1.4165400722715191 -1.118795389139013 1.5872239094629976 -0.7643667491618388 S1.659063168 -0.3933861120000004 1.659063168 -4.063532796548935e-16" fill="#00ffff" stroke-width="0">
    <animateTransform attributeName="transform" type="rotate" dur="2.2222222222222223s" repeatCount="indefinite" values="0;51.42857142857143"></animateTransform>
  </path>
</g></g>
</svg>