<?xml version="1.0" encoding="utf-8"?>
<svg xmlns="http://www.w3.org/2000/svg" xmlns:xlink="http://www.w3.org/1999/xlink" style="margin: auto; background-color: rgb(255, 255, 255); display: block; z-index: 1; position: relative; shape-rendering: auto; background-position: initial initial; background-repeat: initial initial;" width="100" height="100" preserveAspectRatio="xMidYMid" viewBox="0 0 100 100">
<g transform=""><g transform="translate(77.65542543314916,28.548253122145827) scale(100)" opacity="0.4">
  <path d="M0.33949999999999997 0 C0.33949999999999997 0.08049999999999999 0.35245215806429014 0.11053495499535267 0.31220215806429014 0.18024999999999997 S0.23946504500464733 0.2537656245848169 0.16975 0.2940156245848169 S0.08050000000000002 0.3605 2.2074258554631042e-17 0.3605 S-0.10003495499535259 0.3342656245848169 -0.1697499999999999 0.29401562458481695 S-0.2719521580642901 0.2499650450046474 -0.3122021580642901 0.1802500000000001 S-0.33949999999999997 0.08050000000000003 -0.33949999999999997 4.1576758831052636e-17 S-0.35245215806429014 -0.1105349549953526 -0.3122021580642902 -0.1802499999999999 S-0.2394650450046474 -0.2537656245848168 -0.16975000000000012 -0.2940156245848168 S-0.08050000000000006 -0.3605 -6.622277566389312e-17 -0.3605 S0.10003495499535241 -0.33426562458481696 0.16974999999999973 -0.294015624584817 S0.27195215806429 -0.24996504500464745 0.31220215806429 -0.18025000000000016 S0.33949999999999997 -0.08050000000000007 0.33949999999999997 -8.315351766210527e-17" fill="#ff00ff" stroke-width="0">
    <animateTransform attributeName="transform" type="rotate" dur="20s" repeatCount="indefinite" values="0;60"></animateTransform>
  </path>
</g><g transform="translate(83.186510519779,24.257903746574993) scale(100)" opacity="0.4">
  <path d="M0.4074 0 C0.4074 0.09659999999999999 0.4229425896771482 0.1326419459944232 0.3746425896771482 0.21629999999999996 S0.2873580540055768 0.30451874950178026 0.20370000000000005 0.35281874950178027 S0.09660000000000002 0.4326 2.6489110265557248e-17 0.4326 S-0.12004194599442312 0.40111874950178034 -0.2036999999999999 0.3528187495017804 S-0.3263425896771481 0.2999580540055769 -0.3746425896771481 0.21630000000000013 S-0.4074 0.09660000000000005 -0.4074 4.989211059726317e-17 S-0.42294258967714815 -0.13264194599442314 -0.3746425896771482 -0.2162999999999999 S-0.2873580540055769 -0.30451874950178015 -0.2037000000000002 -0.35281874950178016 S-0.09660000000000007 -0.4326 -7.946733079667174e-17 -0.4326 S0.12004194599442289 -0.4011187495017804 0.2036999999999997 -0.35281874950178044 S0.326342589677148 -0.29995805400557696 0.37464258967714803 -0.2163000000000002 S0.4074 -0.09660000000000009 0.4074 -9.978422119452634e-17" fill="#00c6ff" stroke-width="0">
    <animateTransform attributeName="transform" type="rotate" dur="10s" repeatCount="indefinite" values="0;60"></animateTransform>
  </path>
</g><g transform="translate(96.46111472769059,13.961065245204992) scale(100)" opacity="0.4">
  <path d="M0.57036 0 C0.57036 0.13523999999999997 0.5921196255480075 0.18569872439219245 0.5244996255480074 0.3028199999999999 S0.4023012756078075 0.42632624930249235 0.28518000000000004 0.49394624930249237 S0.13524 0.60564 3.7084754371780145e-17 0.60564 S-0.16805872439219238 0.5615662493024924 -0.2851799999999999 0.4939462493024925 S-0.4568796255480073 0.41994127560780764 -0.5244996255480073 0.3028200000000002 S-0.57036 0.13524000000000005 -0.57036 6.984895483616844e-17 S-0.5921196255480075 -0.18569872439219237 -0.5244996255480074 -0.30281999999999987 S-0.4023012756078077 -0.4263262493024922 -0.28518000000000027 -0.49394624930249226 S-0.13524000000000008 -0.60564 -1.1125426311534043e-16 -0.60564 S0.1680587243921921 -0.5615662493024925 0.2851799999999996 -0.49394624930249265 S0.4568796255480072 -0.4199412756078077 0.5244996255480072 -0.30282000000000026 S0.57036 -0.1352400000000001 0.57036 -1.3969790967233687e-16" fill="#00ffff" stroke-width="0">
    <animateTransform attributeName="transform" type="rotate" dur="6.666666666666666s" repeatCount="indefinite" values="0;60"></animateTransform>
  </path>
</g></g>
</svg>