<?xml version="1.0" encoding="utf-8"?>
<svg xmlns="http://www.w3.org/2000/svg" xmlns:xlink="http://www.w3.org/1999/xlink" style="margin: auto; background-color: rgb(255, 255, 255); display: block; z-index: 1; position: relative; shape-rendering: auto; background-position: initial initial; background-repeat: initial initial;" width="120" height="120" preserveAspectRatio="xMidYMid" viewBox="0 0 120 120">
<g transform=""><linearGradient id="lg-0.9268027668901078" x1="0" x2="1" y1="0" y2="0">
  <stop stop-color="#f8cd41" offset="0"></stop>
  <stop stop-color="#57a8d7" offset="1"></stop>
</linearGradient><path d="M 93 60 C 93 70 78 85 69 88 C 60 91 43 85 37 77 C 31 69 32 52 38 44 C 44 36 60 30 69 33 C 78 36 93 50 93 60" fill="url(#lg-0.9268027668901078)" opacity="0.4">
  <animate attributeName="d" dur="10s" repeatCount="indefinite" keyTimes="0;0.3333333333333333;0.6666666666666666;1" calcmod="spline" keySplines="0.3 0.1 0.7 0.9;0.3 0.1 0.7 0.9;0.3 0.1 0.7 0.9" begin="-4s" values="M 93 60 C 93 70 78 85 69 88 C 60 91 43 85 37 77 C 31 69 32 52 38 44 C 44 36 60 30 69 33 C 78 36 93 50 93 60;M 92 60 C 92 70 78 80 68 83 C 58 86 39 87 33 79 C 27 71 25 47 31 39 C 37 31 57 35 67 38 C 77 41 92 50 92 60;M 102 60 C 102 73 82 86 70 90 C 58 94 37 91 30 81 C 23 71 17 44 25 34 C 33 24 59 22 71 26 C 83 30 102 47 102 60;M 93 60 C 93 70 78 85 69 88 C 60 91 43 85 37 77 C 31 69 32 52 38 44 C 44 36 60 30 69 33 C 78 36 93 50 93 60"></animate>
</path><path d="M 109 60 C 109 73 83 89 71 93 C 59 97 36 93 29 82 C 22 71 22 48 30 38 C 38 28 58 24 70 28 C 82 32 109 47 109 60" fill="url(#lg-0.9268027668901078)" opacity="0.4">
  <animate attributeName="d" dur="10s" repeatCount="indefinite" keyTimes="0;0.3333333333333333;0.6666666666666666;1" calcmod="spline" keySplines="0.3 0.1 0.7 0.9;0.3 0.1 0.7 0.9;0.3 0.1 0.7 0.9" begin="-4s" values="M 109 60 C 109 73 83 89 71 93 C 59 97 36 93 29 82 C 22 71 22 48 30 38 C 38 28 58 24 70 28 C 82 32 109 47 109 60;M 109 60 C 109 73 84 88 71 92 C 58 96 31 98 23 87 C 15 76 13 43 21 32 C 29 21 59 18 72 22 C 85 26 109 47 109 60;M 102 60 C 102 73 82 84 69 88 C 56 92 36 94 28 83 C 20 72 17 45 25 34 C 33 23 57 26 70 30 C 83 34 102 47 102 60;M 109 60 C 109 73 83 89 71 93 C 59 97 36 93 29 82 C 22 71 22 48 30 38 C 38 28 58 24 70 28 C 82 32 109 47 109 60"></animate>
</path><path d="M 96 60 C 96 71 78 81 68 84 C 58 87 37 90 31 81 C 25 72 28 50 34 41 C 40 32 60 26 70 29 C 80 32 96 49 96 60" fill="url(#lg-0.9268027668901078)" opacity="0.4">
  <animate attributeName="d" dur="10s" repeatCount="indefinite" keyTimes="0;0.3333333333333333;0.6666666666666666;1" calcmod="spline" keySplines="0.3 0.1 0.7 0.9;0.3 0.1 0.7 0.9;0.3 0.1 0.7 0.9" begin="-4s" values="M 96 60 C 96 71 78 81 68 84 C 58 87 37 90 31 81 C 25 72 28 50 34 41 C 40 32 60 26 70 29 C 80 32 96 49 96 60;M 91 60 C 91 69 76 78 67 81 C 58 84 42 85 36 78 C 30 71 27 48 32 40 C 37 32 59 34 68 37 C 77 40 91 51 91 60;M 96 60 C 96 70 77 83 68 86 C 59 89 42 86 36 78 C 30 70 27 48 33 40 C 39 32 59 33 68 36 C 77 39 96 50 96 60;M 96 60 C 96 71 78 81 68 84 C 58 87 37 90 31 81 C 25 72 28 50 34 41 C 40 32 60 26 70 29 C 80 32 96 49 96 60"></animate>
</path><path d="M 100 60 C 100 72 80 83 69 87 C 58 91 39 89 32 80 C 25 71 22 46 29 37 C 36 28 59 25 70 28 C 81 31 100 48 100 60" fill="url(#lg-0.9268027668901078)" opacity="0.4">
  <animate attributeName="d" dur="10s" repeatCount="indefinite" keyTimes="0;0.3333333333333333;0.6666666666666666;1" calcmod="spline" keySplines="0.3 0.1 0.7 0.9;0.3 0.1 0.7 0.9;0.3 0.1 0.7 0.9" begin="-4s" values="M 100 60 C 100 72 80 83 69 87 C 58 91 39 89 32 80 C 25 71 22 46 29 37 C 36 28 59 25 70 28 C 81 31 100 48 100 60;M 113 60 C 113 74 83 88 70 92 C 57 96 32 97 24 86 C 16 75 17 46 25 35 C 33 24 60 17 73 21 C 86 25 113 46 113 60;M 95 60 C 95 71 79 82 68 85 C 57 88 40 89 33 80 C 26 71 27 50 34 41 C 41 32 58 29 69 33 C 80 37 95 49 95 60;M 100 60 C 100 72 80 83 69 87 C 58 91 39 89 32 80 C 25 71 22 46 29 37 C 36 28 59 25 70 28 C 81 31 100 48 100 60"></animate>
</path><path d="M 97 60 C 97 70 76 80 67 83 C 58 86 41 86 35 78 C 29 70 27 48 33 40 C 39 32 59 31 68 34 C 77 37 97 50 97 60" fill="url(#lg-0.9268027668901078)" opacity="0.4">
  <animate attributeName="d" dur="10s" repeatCount="indefinite" keyTimes="0;0.3333333333333333;0.6666666666666666;1" calcmod="spline" keySplines="0.3 0.1 0.7 0.9;0.3 0.1 0.7 0.9;0.3 0.1 0.7 0.9" begin="-4s" values="M 97 60 C 97 70 76 80 67 83 C 58 86 41 86 35 78 C 29 70 27 48 33 40 C 39 32 59 31 68 34 C 77 37 97 50 97 60;M 101 60 C 101 70 79 84 69 87 C 59 90 41 86 35 78 C 29 70 29 50 35 42 C 41 34 57 35 67 38 C 77 41 101 50 101 60;M 98 60 C 98 70 76 79 67 82 C 58 85 42 86 36 78 C 30 70 24 46 30 38 C 36 30 58 31 68 34 C 78 37 98 50 98 60;M 97 60 C 97 70 76 80 67 83 C 58 86 41 86 35 78 C 29 70 27 48 33 40 C 39 32 59 31 68 34 C 77 37 97 50 97 60"></animate>
</path></g>
</svg>