<?xml version="1.0" encoding="utf-8"?>
<svg xmlns="http://www.w3.org/2000/svg" xmlns:xlink="http://www.w3.org/1999/xlink" style="margin: auto; background-color: rgb(241, 242, 243); display: block; z-index: 1; position: relative; shape-rendering: auto; background-position: initial initial; background-repeat: initial initial;" width="1644" height="1021" preserveAspectRatio="xMidYMid" viewBox="0 0 1644 1021">
<g transform=""><linearGradient id="lg-0.5415002348307287" x1="0" x2="1" y1="0" y2="0">
  <stop stop-color="#93dbe9" offset="0"></stop>
  <stop stop-color="#689cc5" offset="1"></stop>
</linearGradient><path d="M 1444 511 C 1444 687 1132 892 964 947 C 796 1002 457 994 353 851 C 249 708 188 269 292 126 C 396 -17 779 71 947 125 C 1115 179 1444 335 1444 511" fill="url(#lg-0.5415002348307287)" opacity="0.4">
  <animate attributeName="d" dur="10s" repeatCount="indefinite" keyTimes="0;0.3333333333333333;0.6666666666666666;1" calcmod="spline" keySplines="0.3 0.1 0.7 0.9;0.3 0.1 0.7 0.9;0.3 0.1 0.7 0.9" begin="-4s" values="M 1444 511 C 1444 687 1132 892 964 947 C 796 1002 457 994 353 851 C 249 708 188 269 292 126 C 396 -17 779 71 947 125 C 1115 179 1444 335 1444 511;M 1337 511 C 1337 677 1129 917 971 968 C 813 1019 465 975 367 841 C 269 707 242 295 340 161 C 438 27 793 62 951 113 C 1109 164 1337 345 1337 511;M 1522 511 C 1522 694 1134 880 960 936 C 786 992 491 976 384 828 C 277 680 237 312 345 164 C 453 16 781 44 955 101 C 1129 158 1522 328 1522 511;M 1444 511 C 1444 687 1132 892 964 947 C 796 1002 457 994 353 851 C 249 708 188 269 292 126 C 396 -17 779 71 947 125 C 1115 179 1444 335 1444 511"></animate>
</path><path d="M 1507 511 C 1507 683 1117 861 953 914 C 789 967 438 1002 337 863 C 236 724 256 312 357 173 C 458 34 787 62 951 115 C 1115 168 1507 339 1507 511" fill="url(#lg-0.5415002348307287)" opacity="0.4">
  <animate attributeName="d" dur="10s" repeatCount="indefinite" keyTimes="0;0.3333333333333333;0.6666666666666666;1" calcmod="spline" keySplines="0.3 0.1 0.7 0.9;0.3 0.1 0.7 0.9;0.3 0.1 0.7 0.9" begin="-4s" values="M 1507 511 C 1507 683 1117 861 953 914 C 789 967 438 1002 337 863 C 236 724 256 312 357 173 C 458 34 787 62 951 115 C 1115 168 1507 339 1507 511;M 1385 511 C 1385 685 1138 924 973 977 C 808 1030 477 975 375 835 C 273 695 245 306 347 166 C 449 26 810 -15 975 38 C 1140 91 1385 337 1385 511;M 1466 511 C 1466 687 1115 841 947 895 C 779 949 516 951 412 809 C 308 667 241 307 345 164 C 449 21 788 43 956 97 C 1124 151 1466 335 1466 511;M 1507 511 C 1507 683 1117 861 953 914 C 789 967 438 1002 337 863 C 236 724 256 312 357 173 C 458 34 787 62 951 115 C 1115 168 1507 339 1507 511"></animate>
</path><path d="M 1359 511 C 1359 669 1096 842 946 891 C 796 940 450 976 357 848 C 264 720 311 335 404 207 C 497 79 794 87 944 136 C 1094 185 1359 353 1359 511" fill="url(#lg-0.5415002348307287)" opacity="0.4">
  <animate attributeName="d" dur="10s" repeatCount="indefinite" keyTimes="0;0.3333333333333333;0.6666666666666666;1" calcmod="spline" keySplines="0.3 0.1 0.7 0.9;0.3 0.1 0.7 0.9;0.3 0.1 0.7 0.9" begin="-4s" values="M 1359 511 C 1359 669 1096 842 946 891 C 796 940 450 976 357 848 C 264 720 311 335 404 207 C 497 79 794 87 944 136 C 1094 185 1359 353 1359 511;M 1395 511 C 1395 672 1102 850 949 900 C 796 950 485 954 390 824 C 295 694 346 364 441 234 C 536 104 818 1 971 51 C 1124 101 1395 350 1395 511;M 1379 511 C 1379 671 1090 820 938 869 C 786 918 548 907 454 778 C 360 649 351 366 445 237 C 539 108 789 96 941 145 C 1093 194 1379 351 1379 511;M 1359 511 C 1359 669 1096 842 946 891 C 796 940 450 976 357 848 C 264 720 311 335 404 207 C 497 79 794 87 944 136 C 1094 185 1359 353 1359 511"></animate>
</path><path d="M 1349 511 C 1349 668 1089 823 940 872 C 791 921 500 939 408 812 C 316 685 356 366 448 239 C 540 112 804 60 953 108 C 1102 156 1349 354 1349 511" fill="url(#lg-0.5415002348307287)" opacity="0.4">
  <animate attributeName="d" dur="10s" repeatCount="indefinite" keyTimes="0;0.3333333333333333;0.6666666666666666;1" calcmod="spline" keySplines="0.3 0.1 0.7 0.9;0.3 0.1 0.7 0.9;0.3 0.1 0.7 0.9" begin="-4s" values="M 1349 511 C 1349 668 1089 823 940 872 C 791 921 500 939 408 812 C 316 685 356 366 448 239 C 540 112 804 60 953 108 C 1102 156 1349 354 1349 511;M 1378 511 C 1378 675 1132 935 976 986 C 820 1037 457 978 361 845 C 265 712 340 363 436 230 C 532 97 798 54 954 105 C 1110 156 1378 347 1378 511;M 1474 511 C 1474 694 1129 864 955 920 C 781 976 474 989 367 841 C 260 693 262 329 369 181 C 476 33 819 -72 993 -16 C 1167 40 1474 328 1474 511;M 1349 511 C 1349 668 1089 823 940 872 C 791 921 500 939 408 812 C 316 685 356 366 448 239 C 540 112 804 60 953 108 C 1102 156 1349 354 1349 511"></animate>
</path><path d="M 1374 511 C 1374 667 1108 886 960 934 C 812 982 449 973 358 847 C 267 721 342 354 434 228 C 526 102 788 113 936 161 C 1084 209 1374 355 1374 511" fill="url(#lg-0.5415002348307287)" opacity="0.4">
  <animate attributeName="d" dur="10s" repeatCount="indefinite" keyTimes="0;0.3333333333333333;0.6666666666666666;1" calcmod="spline" keySplines="0.3 0.1 0.7 0.9;0.3 0.1 0.7 0.9;0.3 0.1 0.7 0.9" begin="-4s" values="M 1374 511 C 1374 667 1108 886 960 934 C 812 982 449 973 358 847 C 267 721 342 354 434 228 C 526 102 788 113 936 161 C 1084 209 1374 355 1374 511;M 1421 511 C 1421 666 1115 911 968 959 C 821 1007 461 964 370 839 C 279 714 326 341 417 216 C 508 91 812 41 959 89 C 1106 137 1421 356 1421 511;M 1535 511 C 1535 697 1159 947 982 1004 C 805 1061 376 1064 267 914 C 158 764 234 313 343 163 C 452 13 809 -48 985 9 C 1161 66 1535 325 1535 511;M 1374 511 C 1374 667 1108 886 960 934 C 812 982 449 973 358 847 C 267 721 342 354 434 228 C 526 102 788 113 936 161 C 1084 209 1374 355 1374 511"></animate>
</path></g>
</svg>